<svg xmlns="http://www.w3.org/2000/svg" data-name="Layer 1" viewBox="0 0 24 24"><path d="M8 11c1.103 0 2-.897 2-2s-.897-2-2-2-2 .897-2 2 .897 2 2 2m0-3a1.001 1.001 0 1 1-1 1c0-.551.448-1 1-1m8-1c-1.103 0-2 .897-2 2s.897 2 2 2 2-.897 2-2-.897-2-2-2m0 3a1.001 1.001 0 0 1 0-2 1.001 1.001 0 0 1 0 2m1.373 4.167a.5.5 0 0 1-.04.706C17.236 14.959 14.919 17 12 17s-5.236-2.041-5.333-2.127a.5.5 0 0 1 .666-.747c.021.019 2.137 1.873 4.667 1.873s4.646-1.854 4.667-1.873a.497.497 0 0 1 .706.041M22.5 9H22V7.5C22 5.019 19.981 3 17.5 3h-5V.5a.5.5 0 0 0-1 0V3h-5A4.505 4.505 0 0 0 2 7.5V9h-.5C.673 9 0 9.673 0 10.5v4c0 .827.673 1.5 1.5 1.5H2v.5C2 18.981 4.019 21 6.5 21h8.849l4.089 2.726A1.648 1.648 0 0 0 22 22.355V16h.5c.827 0 1.5-.673 1.5-1.5v-4c0-.827-.673-1.5-1.5-1.5m-21 6a.5.5 0 0 1-.5-.5v-4a.5.5 0 0 1 .5-.5H2v5zM21 22.355a.64.64 0 0 1-.342.571.64.64 0 0 1-.666-.032l-4.215-2.81A.5.5 0 0 0 15.5 20h-9C4.57 20 3 18.43 3 16.5v-9C3 5.57 4.57 4 6.5 4h11C19.43 4 21 5.57 21 7.5zm2-7.855a.5.5 0 0 1-.5.5H22v-5h.5a.5.5 0 0 1 .5.5z"/></svg>