<svg height="1024" preserveAspectRatio="none" viewBox="0 0 1024 1024" width="1024" xmlns="http://www.w3.org/2000/svg"><path d="m969.6 351.25q-8.6-20.85-19.4-40.85-6.1-11.35-12.9-22.4-29.35-47.55-71.55-89.8-138.25-138.25-333.8-138.25-195.5 0-333.75 138.25-138.25 138.25-138.25 333.75 0 195.55 138.25 333.8 138.25 138.2 333.75 138.2 195.55 0 333.8-138.2 76.15-76.2 110.35-169.75 27.85-76.25 27.85-164.05 0-67.35-16.4-127.95-1.85-6.85-3.9-13.6-6.15-19.95-14.05-39.15z" fill-opacity=".098039"/><path d="m962.85 367.85q-2.47128906-7.946875-5.25-15.8-9.75-27.55-23.15-53.65-5.8-11.35-12.3-22.4-30.65-52-76.35-97.75-109-109-253.65-132.05-24.5-3.9-50.05-5.35-14.9-.85-30.1-.85-14.1 0-27.9.75-177.55 9.2-305.85 137.5-138.25 138.25-138.25 333.75 0 195.55 138.25 333.8 84.79003906 84.75703125 191.1 117.55 54.53808594 16.81308594 114.75 19.95.2 0 .4 0 12.15.6 24.5.7 1.5 0 3 0 15.25 0 30.1-.8 3.5-.2 6.95-.45 30.05-2.15 58.7-7.7 11.8-2.3 23.4-5.15 120.6-30.05 214.65-124.1 72.9-72.95 107.35-161.8 27.75-71.6 30.55-153.5.3-9.2.3-18.5 0-1 0-2 0-.5 0-1-.35-61.3-14.3-117-1.75-6.85-3.65-13.6-1.52421875-5.28554687-3.2-10.55z" fill="#cbccc2"/><path d="m715 275-39 7-35-35-129-89.95-103.45 100.95 40.35 252.25-140.9 238.75 234.2 234.2q3.44667969-.20332031 6.85-.45 30.05-2.15 58.7-7.7 11.8-2.3 23.4-5.15 120.6-30.05 214.65-124.1 72.9-72.95 107.35-161.8 25.60195313-66.05761719 29.95-140.9z" fill-opacity=".2"/><path d="m509.75 123.2q-10.12929687.04394531-17.4 7.15l-102.5 100.5q-4.18710937 4.1296875-6.15 9.7-1.91894531 5.56308594-1.15 11.35l10.7 82.1h-14.25q-10.35429687.00136719-17.7 7.3-7.29863281 7.34570313-7.3 17.7.00136719 10.35429688 7.3 17.65 7.34570313 7.34863281 17.7 7.35h20.75l18.05 138.55q.42011719 3.18984375 1.5 5.95l-113.05 190.95q-5.23730469 8.96875-2.65 18.95 2.58066406 10.00078125 11.5 15.3 8.9140625 5.28535156 18.9 2.7 10.00273438-2.58554687 15.3-11.5l220.15-371.9q.98925781-1.39121094 1.75-2.9l64.25-108.7q4.45351562-7.51835937 3.25-16.1-1.14433594-8.52519531-7.4-14.6l-104.1-100.5q-7.31992188-7.03769531-17.45-7m-66.05 210.8-9.95-76.2 76.2-74.75 72.4 69.9-47.9 81.05zm6.5 50h54.65l-44.8 75.65zm86.8-142.55q-.00136719-10.35429687-7.35-17.7-7.29570312-7.29863281-17.65-7.3-10.35429687.00136719-17.7 7.3-7.29863281 7.34570313-7.3 17.7v13.1q.00136719 10.35429688 7.3 17.65 7.34570313 7.34863281 17.7 7.35 10.35429688-.00136719 17.65-7.35 7.34863281-7.29570312 7.35-17.65zm185.15 40.85q-2.58085937-10.00117187-11.5-15.3-8.91425781-5.28535156-18.9-2.7-10.00234375 2.58417969-15.35 11.45l-286.15 483.5q-4.40234375 7.56679688-3.25 16.1 1.19414063 8.57460938 7.4 14.6l103.8 100.2q.88945313.85585938 1.8 1.6 6.64804688 5.62734375 15.6 5.7 10.34199219.13867188 17.8-7.1l102.5-100.5q4.16640625-4.13730469 6.1-9.7 1.94492188-5.56640625 1.2-11.4l-35.25-270.65q-.41894531-3.12949219-1.5-5.95l113-190.95q5.28652344-8.91777344 2.7-18.9m-181.55 324q-.00019531-1.33847656-.15-2.65l25.25-42.65 26.3 201.85-51.4 50.4zm-97.25 161.45 47.25-79.8v125.35z" fill="#4a4b48"/></svg>