<svg width="40" height="40" viewBox="0 0 24 24" fill="none" xmlns="http://www.w3.org/2000/svg">
  <path d="M2.31895 8.59742L3.18854 17.0408M2.52796 18.7604C2.99559 18.8862 3.16585 18.0248 3.07511 17.5705M2.52796 18.7604L1.54343 10.0354M2.52796 18.7604L2.5657 19.0949M3.41491 17.6079C6.77984 17.4943 11.3168 15.942 13.6987 20.7126M4.70103 15.6284C7.0381 15.5419 9.24379 14.6142 11.4683 16.3313M4.70103 13.6332C7.0381 13.5467 8.97251 12.4079 11.1971 14.1251M7.78188 10.7487C9.16446 10.6946 9.82769 10.4594 11 11.3643M12.0341 20.3719C14.4539 17.2293 17.3651 18.6302 22.8095 18.1002M12.9796 19.2364C12.9796 16.8132 12.0722 11.5503 12.0722 9.88432C12.2487 9.58142 12.7982 8.95289 13.5846 8.86202M12.0351 9.92179C11.5562 8.78591 9.78172 6.74132 6.51509 7.65002C3.3283 8.53652 2.94097 8.05369 2.18676 7.67803C2.16029 7.66484 2.12904 7.68407 2.12696 7.71361C2.10952 7.96099 1.99159 8.41813 1.61813 8.69694C1.607 8.70525 1.60056 8.7186 1.60142 8.73247L1.6744 9.9018C1.67519 9.91438 1.67003 9.9266 1.66047 9.93481L1.54343 10.0354M11.7054 21.6725L11.9477 21.9844C11.9553 21.9943 11.967 22 11.9794 22M11.7054 21.6725C11.6988 21.664 11.6891 21.6585 11.6785 21.6572L11.3073 21.6117M11.7054 21.6725L22.6971 19.8404M11.9794 22H13.741C13.7604 22 13.7771 21.9861 13.7806 21.9669L13.8451 21.6117M11.9794 22L13.8451 21.6117M13.8451 21.6117C13.8481 21.5948 13.8615 21.5817 13.8784 21.5791L22.6971 20.1886C22.7184 20.1852 22.7332 20.1657 22.7308 20.1443L22.6971 19.8404M22.017 13.6332L23 18.3282M20.8522 9.88432C18.9764 11.0325 17.7221 8.92287 15.5 11.5M20.5 7.5C18.6242 8.64823 17.7221 6.42287 15.5 9M20 5C18.1242 6.14823 17.2221 4.42287 15 7M1.25822 10.0354H1.04023C1.01629 10.0354 0.997653 10.0562 1.00024 10.08L2.12619 20.4537C2.12821 20.4723 2.14275 20.4871 2.16129 20.4894L2.49547 20.5304M1.25822 10.0354L2.49547 20.5304M1.25822 10.0354H1.54343M2.49547 20.5304L2.73094 20.5593M2.73094 20.5593L11.0417 21.5791M2.73094 20.5593L2.7098 20.3719M22.6971 19.8404L22.6613 19.5176M22.6613 19.5176L11.3073 21.6117M22.6613 19.5176L22.6251 19.1911M11.3073 21.6117L11.0417 21.5791M22.6251 19.1911L22.5889 18.8646C22.5862 18.8406 22.5632 18.8243 22.5398 18.8298L13.1356 21.0147C13.1331 21.0153 13.1308 21.016 13.1284 21.0171C13.0123 21.0674 12.7051 21.1355 12.3757 21.0156L2.5657 19.0949M22.6251 19.1911L12.6308 21.2515M11.0417 21.5791L11.4683 21.4911M2.7098 20.3719L11.4683 21.4911M2.7098 20.3719L2.67276 20.0437M11.4683 21.4911L11.8472 21.413M11.8472 21.413L2.67276 20.0437M11.8472 21.413L12.3095 21.3177M2.67276 20.0437L2.63691 19.726M2.63691 19.726L12.3095 21.3177M2.63691 19.726L2.59867 19.3871M12.3095 21.3177L12.6308 21.2515M12.6308 21.2515L2.59867 19.3871M2.59867 19.3871L2.5657 19.0949M4.33587 9.34181L4.50149 11.5366C4.5094 11.6414 4.5963 11.7229 4.70103 11.716C5.23489 11.6804 6.29928 11.471 6.32222 10.5037C6.34514 9.53671 5.37436 9.22148 4.54919 9.13058C4.42757 9.11718 4.32665 9.21962 4.33587 9.34181ZM22.3165 10.9722C19.908 12.6022 17.4972 10.6824 14.657 14.2651C14.6117 14.3222 14.5169 14.2987 14.5093 14.2262L13.7016 6.50566C13.6997 6.48704 13.7048 6.46755 13.7151 6.45197C16.4822 2.30283 19.355 4.47537 21.2451 2.03315C21.2907 1.97422 21.3888 1.99795 21.3969 2.07206L22.3515 10.897C22.3547 10.9264 22.3409 10.9556 22.3165 10.9722Z" stroke="black" strokeLinecap="round"/>
</svg>